<svg data-v-423bf9ae="" xmlns="http://www.w3.org/2000/svg" viewBox="0 0 383.2203534575678 60" class="font"><!----><!----><defs data-v-423bf9ae=""><linearGradient data-v-423bf9ae="" gradientTransform="rotate(25)" id="271ba742-cc2f-4de0-9f4b-fdb8b396eb1b" x1="0%" y1="0%" x2="100%" y2="0%"><stop data-v-423bf9ae="" offset="0%" style="stop-color: rgb(81, 164, 251); stop-opacity: 1;"></stop><stop data-v-423bf9ae="" offset="100%" style="stop-color: rgb(81, 164, 251); stop-opacity: 1;"></stop></linearGradient></defs><g data-v-423bf9ae="" id="9e1bef50-dbac-4d5d-915b-a07c1df9b333" fill="url(#271ba742-cc2f-4de0-9f4b-fdb8b396eb1b)" transform="matrix(5.649717575005543,0,0,5.649717575005543,-7.288129422875443,-19.943503116548428)"><path d="M1.29 14.08L7.18 14.08L7.18 12.59L2.94 12.59L2.94 4.28L1.29 4.28ZM8.53 4.51C8.53 5.07 8.93 5.47 9.46 5.47C10.00 5.47 10.40 5.07 10.40 4.51C10.40 3.93 10.00 3.53 9.46 3.53C8.93 3.53 8.53 3.93 8.53 4.51ZM8.67 14.08L10.26 14.08L10.26 6.64L8.67 6.64ZM11.47 6.64L14.35 14.08L16.02 14.08L18.87 6.64L17.26 6.64L15.22 12.50L13.15 6.64ZM19.29 10.37C19.29 12.61 20.80 14.14 23.10 14.14C24.39 14.14 25.45 13.68 26.18 12.88L25.33 11.97C24.78 12.53 24.04 12.84 23.23 12.84C22.05 12.84 21.17 12.12 20.92 10.98L26.54 10.98C26.74 8.29 25.68 6.58 23.06 6.58C20.85 6.59 19.29 8.12 19.29 10.37ZM20.89 9.80C21.07 8.61 21.90 7.87 23.07 7.87C24.29 7.87 25.09 8.60 25.14 9.80ZM28.32 14.08L29.97 14.08L29.97 11.13L32.23 11.13C34.69 11.13 36.11 9.84 36.11 7.63C36.11 5.50 34.69 4.28 32.23 4.28L28.32 4.28ZM29.97 9.65L29.97 5.77L32.16 5.77C33.67 5.77 34.52 6.38 34.52 7.67C34.52 9.00 33.67 9.65 32.16 9.65ZM37.03 11.84C37.03 13.16 38.04 14.15 39.65 14.15C40.73 14.15 41.58 13.83 42.11 13.17L42.11 14.08L43.69 14.08L43.68 9.20C43.67 7.56 42.59 6.58 40.67 6.58C39.26 6.58 38.50 6.90 37.46 7.52L38.12 8.64C38.86 8.13 39.61 7.88 40.32 7.88C41.50 7.88 42.10 8.44 42.10 9.38L42.10 9.60L39.84 9.60C38.05 9.62 37.03 10.49 37.03 11.84ZM38.54 11.77C38.54 11.06 39.03 10.78 40.08 10.78L42.10 10.78L42.10 11.47C42.01 12.28 41.13 12.88 39.98 12.88C39.09 12.88 38.54 12.45 38.54 11.77ZM45.09 8.12L46.14 8.12L46.14 11.98C46.14 13.51 47.11 14.15 48.23 14.15C48.86 14.15 49.48 13.96 50.06 13.61L49.66 12.38C49.22 12.59 48.87 12.70 48.54 12.70C48.03 12.70 47.74 12.46 47.74 11.69L47.74 8.12L49.94 8.12L49.94 6.92L47.74 6.92L47.74 4.87L46.14 4.87L46.14 6.92L45.09 6.92ZM51.62 14.08L53.23 14.08L53.23 10.42C53.23 9.10 54.03 8.11 55.36 8.09C56.48 8.09 57.15 8.78 57.15 9.90L57.15 14.08L58.76 14.08L58.76 9.45C58.76 7.67 57.72 6.58 55.99 6.58C54.71 6.58 53.76 7.04 53.23 8.09L53.23 3.70L51.62 3.70ZM59.93 14.08L61.87 14.08L64.50 10.39L67.14 14.08L69.12 14.08L65.55 8.99L68.84 4.28L66.91 4.28L64.50 7.69L62.10 4.28L60.19 4.28L63.50 9.06Z"></path></g><!----><!----></svg>